Coordinates
version=1
nRows=19
nColumns=24
inDegrees=yes

Units are S.I. units (second, meters, Newtons, ...)
Angles are in degrees.

endheader
time	pelvis_tilt	pelvis_list	pelvis_rotation	pelvis_tx	pelvis_ty	pelvis_tz	hip_flexion_r	hip_adduction_r	hip_rotation_r	knee_angle_r	ankle_angle_r	subtalar_angle_r	mtp_angle_r	hip_flexion_l	hip_adduction_l	hip_rotation_l	knee_angle_l	ankle_angle_l	subtalar_angle_l	mtp_angle_l	lumbar_extension	lumbar_bending	lumbar_rotation
      5.12000000	    -10.53492639	     -2.81958201	      6.35032603	     -1.33548973	     -0.03998676	      2.02312217	     35.75903859	      0.91133837	    -18.20102716	    -13.55892596	     -3.99839488	      1.33336611	      6.41484081	     -3.78821731	     -2.08638696	     -6.32212702	    -19.15086513	     10.58601792	      8.29425955	     13.11978116	      4.63707158	      2.09612096	     -8.23339275
      5.13000000	    -10.59694093	     -3.52176577	      6.16654339	     -1.32093987	     -0.04055539	      2.02455854	     36.00442523	      1.70003001	    -17.69136886	    -15.13084806	     -5.05715346	     -0.40377176	      1.32796568	     -3.47103078	     -3.25452126	     -6.47963224	    -21.09865879	      9.26249350	      8.91881305	     14.36273399	      4.95998564	      2.85348079	     -8.18213725
      5.14000000	    -10.66782313	     -4.27405145	      5.92244890	     -1.30633405	     -0.04075465	      2.02600698	     36.26382544	      2.56304785	    -17.25936037	    -16.66086215	     -6.23692315	     -1.97619570	     -0.81467085	     -2.96895803	     -4.48439688	     -6.76591619	    -23.27579289	      7.43743587	      9.39174743	     16.02966255	      5.29034021	      3.68347104	     -8.12594405
      5.15000000	    -10.70905383	     -4.99041346	      5.65484837	     -1.29162280	     -0.04063725	      2.02744238	     36.46769372	      3.41766431	    -16.89688647	    -18.18010712	     -7.27680665	     -3.36497134	     -0.98553736	     -2.32628869	     -5.68884753	     -7.12400595	    -25.65873155	      5.03507798	      9.64533239	     18.02742014	      5.58859179	      4.49057420	     -8.08493617
      5.16000000	    -10.69908147	     -5.62979153	      5.42198300	     -1.27679785	     -0.04027593	      2.02886229	     36.51565692	      4.21019822	    -16.66451392	    -19.59160229	     -8.11147325	     -4.59187759	      0.70355855	     -1.55924880	     -6.83743407	     -7.49426288	    -28.17188478	      1.80206727	      9.54978539	     21.44593615	      5.83631933	      5.21613019	     -8.13947499
      5.17000000	    -10.55441158	     -6.28720123	      5.27647692	     -1.26192315	     -0.03964813	      2.03025541	     36.22238812	      5.02799565	    -16.67809931	    -20.69891111	     -8.76199286	     -5.70561511	      3.96636913	     -0.72098187	     -8.04876205	     -7.78403975	    -30.83961105	     -2.03336860	      9.16727469	     25.47596658	      5.95763033	      5.94857525	     -8.28700818
      5.18000000	    -10.58868537	     -6.79831431	      5.01145241	     -1.24724911	     -0.03919793	      2.03195514	     35.98802179	      5.81380818	    -16.49729605	    -21.65460134	     -8.86863982	     -6.62638663	      6.41693858	      0.48514219	     -9.07953017	     -8.01222968	    -33.64990955	     -6.34532126	      8.34852109	     29.48697697	      6.22712220	      6.50200856	     -8.29387815
      5.19000000	    -10.55682250	     -7.49389582	      4.78021416	     -1.23272166	     -0.03865817	      2.03377234	     35.46365335	      6.83564378	    -16.41524714	    -22.21337242	     -8.63880396	     -7.40629379	      8.14561518	      1.82593421	    -10.33246993	     -8.04945450	    -36.58878712	    -10.82343017	      7.30437488	     33.60857477	      6.44130085	      7.22199804	     -8.33145289
      5.20000000	    -10.63872058	     -8.26532009	      4.49563447	     -1.21847421	     -0.03826266	      2.03570757	     34.92002580	      7.98195072	    -16.33745206	    -22.51799140	     -8.10814798	     -7.98614284	      8.96429169	      3.45104388	    -11.62082878	     -7.87724360	    -39.63452219	    -15.22205884	      5.91694969	     37.14888704	      6.76197048	      8.00781209	     -8.31662501
      5.21000000	    -10.73735231	     -9.10448966	      4.19644192	     -1.20455701	     -0.03791955	      2.03765320	     34.28761662	      9.20809044	    -16.35557839	    -22.60508769	     -7.42538268	     -8.39073390	      9.31935626	      5.22357448	    -12.91532826	     -7.44687603	    -42.73752439	    -19.21166761	      4.32916187	     39.86101233	      7.06812633	      8.86225433	     -8.15712740
      5.22000000	    -10.89742060	     -9.96502607	      3.94363046	     -1.19084388	     -0.03764869	      2.03946180	     33.65048588	     10.37834843	    -16.64572081	    -22.56249658	     -6.60375803	     -8.45118239	      9.71368171	      7.17851082	    -14.15269326	     -6.79724143	    -45.87974599	    -22.38146719	      2.75960476	     40.90305229	      7.44448892	      9.72977286	     -8.06804427
      5.23000000	    -10.86812338	    -10.66857258	      3.69475882	     -1.17744976	     -0.03699658	      2.04118875	     32.74987076	     11.41595221	    -16.91290636	    -22.41992940	     -5.85020733	     -8.44544769	     10.14077782	      8.92766004	    -15.12101466	     -6.06187085	    -48.82737063	    -24.85229801	      1.06193378	     40.97281569	      7.55353491	     10.45393627	     -7.79368853
      5.24000000	    -11.07365169	    -11.22814886	      3.41647792	     -1.16414184	     -0.03651639	      2.04289352	     32.05438919	     12.23022851	    -17.37681459	    -22.21281495	     -5.37668899	     -8.25745610	     13.37122906	     10.92804269	    -15.85010043	     -5.29459783	    -51.58462756	    -26.43579378	     -0.48111569	     41.63176184	      7.90867905	     11.01084666	     -7.45104339
      5.25000000	    -10.90019651	    -11.69151434	      3.37493075	     -1.15103667	     -0.03535728	      2.04420857	     30.89493761	     12.90253528	    -17.78961271	    -21.96345668	     -4.44541670	     -7.71208110	     13.97235012	     12.56863260	    -16.34071691	     -4.30197709	    -54.10736191	    -26.96104103	     -1.83561531	     41.27675171	      7.85348646	     11.46718333	     -7.21695097
      5.26000000	    -10.90576537	    -11.97316220	      3.24097328	     -1.13809835	     -0.03421582	      2.04555337	     29.87003271	     13.44407392	    -17.88826180	    -21.62576717	     -3.87499522	     -7.38607330	     16.19571303	     14.38702921	    -16.53807236	     -3.36506634	    -56.47325083	    -26.40809059	     -2.86800012	     39.90297796	      7.95111232	     11.73926831	     -6.83368571
      5.27000000	    -10.68926155	    -12.19112078	      3.24558886	     -1.12532278	     -0.03267342	      2.04675985	     28.54835010	     13.95855810	    -17.72110722	    -21.20392670	     -3.08688051	     -7.07443583	     16.31729208	     15.97474999	    -16.58397074	     -2.32960211	    -58.48289820	    -25.43651921	     -3.80613540	     40.06425902	      7.80493744	     11.93163919	     -6.50913571
      5.28000000	    -10.51061361	    -12.32623913	      3.28788156	     -1.11275833	     -0.03112254	      2.04786603	     27.23370188	     14.41117925	    -17.34444985	    -20.70574987	     -2.39037970	     -6.96864563	     16.11872821	     17.64036765	    -16.44951073	     -1.26410128	    -60.25810027	    -24.06293482	     -4.60771375	     40.14853737	      7.67703569	     12.02998391	     -6.18525636
      5.29000000	    -10.37873752	    -12.39098166	      3.33188850	     -1.10031990	     -0.02963208	      2.04888567	     25.95527641	     14.81474926	    -16.79315276	    -20.22373358	     -1.41747903	     -6.83597100	     13.62129654	     19.36560275	    -16.17317250	     -0.25667301	    -61.79461470	    -22.44520098	     -5.35408928	     39.50830724	      7.58507431	     12.05582991	     -5.83429563
      5.30000000	    -10.10645169	    -12.41105593	      3.36809936	     -1.08790703	     -0.02803793	      2.04989788	     24.44612617	     15.19641511	    -16.29814965	    -19.54400715	     -0.88363490	     -6.90581582	     13.45595153	     20.86683090	    -15.84775904	      0.66214422	    -62.97286089	    -20.77684811	     -5.90311597	     39.86021146	      7.33081703	     12.04800667	     -5.43164584
